<svg width="26" height="22" viewBox="0 0 26 22" fill="none" xmlns="http://www.w3.org/2000/svg">
<path fill-rule="evenodd" clip-rule="evenodd" d="M10.1053 6.73658V14.1521L16.8417 17.4518L10.1053 6.73658ZM25.0813 3.96232L17.0766 0.0494922C16.9465 -0.0185036 16.7811 0.0319529 16.7027 0.151877L12.0758 7.5131L17.5819 16.2689L25.1583 4.22568C25.2202 4.13173 25.176 4.01301 25.0813 3.96232ZM17.9773 17.9983L24.5684 21.2203C24.9499 21.4083 25.2632 21.2201 25.2632 20.7948V6.41771L17.9773 17.9983ZM8.8421 3.72733V20.8034C8.8421 21.22 8.31916 21.6136 7.93643 21.4257L0 17.3272V0.441145C0 0.159259 0.289256 -0.160782 0.802098 0.091433L8.8421 3.72733Z" fill="#6964DE"/>
</svg>
